<svg width="30" height="30" viewBox="0 0 30 30" fill="none" xmlns="http://www.w3.org/2000/svg">
<path d="M25.1543 3.98444C24.8292 3.99878 24.5264 4.09346 24.2598 4.20123C24.01 4.3017 23.0558 4.71097 21.5527 5.35553C20.0484 6.00065 18.0565 6.85584 15.9316 7.76959C11.682 9.5971 6.90421 11.6542 4.45703 12.7071C4.36501 12.7467 4.04392 12.8492 3.70312 13.1153C3.36233 13.3813 3 13.9326 3 14.5469C3 15.0423 3.23607 15.5344 3.5332 15.8282C3.83034 16.122 4.14475 16.2671 4.41406 16.377C5.39123 16.7757 8.42185 18.0159 8.99414 18.2501C9.19555 18.867 10.2925 22.2226 10.5469 23.045C10.7146 23.5877 10.8742 23.9276 11.082 24.1973C11.1859 24.3322 11.3067 24.4504 11.4531 24.543C11.5116 24.58 11.5758 24.6086 11.6406 24.6348L11.6445 24.6368C11.6595 24.6428 11.6723 24.653 11.6875 24.6583C11.7161 24.6683 11.7352 24.6695 11.7734 24.6778C11.9258 24.727 12.0795 24.7579 12.2168 24.7579C12.802 24.7579 13.1602 24.4356 13.1602 24.4356L13.1816 24.42L16.1914 21.8165L19.8418 25.2696C19.8932 25.3423 20.3725 26.0001 21.4297 26.0001C22.0574 26.0001 22.5553 25.6851 22.875 25.3497C23.1947 25.0143 23.3938 24.6619 23.4785 24.2188V24.2169C23.5577 23.7982 26.9219 6.5274 26.9219 6.5274L26.916 6.55084C27.0145 6.10133 27.0403 5.6827 26.9316 5.26959C26.823 4.85648 26.5366 4.46095 26.1816 4.24811C25.8267 4.03531 25.4794 3.97009 25.1543 3.98444ZM24.9668 6.07428C24.962 6.10346 24.9704 6.08879 24.9629 6.12311L24.9609 6.13483L24.959 6.14654C24.959 6.14654 21.6365 23.1964 21.5137 23.8458C21.5227 23.7967 21.4816 23.8942 21.4395 23.9532C21.3799 23.9121 21.2578 23.8594 21.2578 23.8594L21.2383 23.838L16.252 19.1212L12.7266 22.168L13.7754 17.9688C13.7754 17.9688 20.3316 11.1822 20.7266 10.7872C21.0446 10.4712 21.1113 10.361 21.1113 10.252C21.1113 10.106 21.0352 10.0001 20.8652 10.0001C20.7122 10.0001 20.5065 10.1488 20.3965 10.2188C18.9634 11.1324 12.6718 14.7992 9.85156 16.4395C9.40338 16.2561 6.28966 14.9815 5.23438 14.5508C5.24236 14.5473 5.23973 14.5486 5.24805 14.545C7.69587 13.4918 12.4716 11.4347 16.7207 9.60748C18.8452 8.69386 20.8387 7.83802 22.3418 7.19342C23.8218 6.55875 24.8501 6.12195 24.9668 6.07428Z" fill="#212121"/>
</svg>
